999
FreeCAD v0.21 33668 +26 (Git)
  0
SECTION
  2
HEADER
  9
$ACADVER
  1
AC1014
  9
$ACADMAINTVER
 70
     9
  9
$DWGCODEPAGE
  3
ANSI_1252
  9
$TEXTSTYLE
  7
STANDARD
  9
$DIMSTYLE
  2
STANDARD
  9
$DIMTXSTY
  7
STANDARD
  9
$CMLSTYLE
  2
STANDARD
  9
$LUNITS
 70
2
  9
$INSUNITS
 70
4
  9
$PEXTMAX
 10
50
 20
50
 30
50
  9
$PEXTMIN
 10
0
 20
0
 30
0
  9
$HANDSEED
  5
FFFF
  0
ENDSEC
  0
SECTION
  2
CLASSES
  0
CLASS
  1
ACDBDICTIONARYWDFLT
  2
AcDbDictionaryWithDefault
  3
ObjectDBX Classes
 90
        0
280
     0
281
     0
  0
CLASS
  1
XRECORD
  2
AcDbXrecord
  3
ObjectDBX Classes
 90
        0
280
     0
281
     0
  0
CLASS
  1
LWPOLYLINE
  2
AcDbPolyline
  3
ObjectDBX Classes
 90
        0
280
     0
281
     1
  0
ENDSEC
  0
SECTION
  2
TABLES
  0
TABLE
  2
VPORT
  5
20
330
0
100
AcDbSymbolTable
 70
     1
  0
VPORT
  5
21
330
20
100
AcDbSymbolTableRecord
100
AcDbViewportTableRecord
  2
*ACTIVE
 70
     0
  0
ENDTAB
  0
TABLE
  2
LTYPE
  5
22
330
0
100
AcDbSymbolTable
 70
     1
  0
LTYPE
  5
23
330
21
100
AcDbSymbolTableRecord
100
AcDbLinetypeTableRecord
  2
BYBLOCK
 70
     0
  3

 72
    65
 73
     0
 40
0.0
  0
LTYPE
  5
24
330
21
100
AcDbSymbolTableRecord
100
AcDbLinetypeTableRecord
  2
BYLAYER
 70
     0
  3

 72
    65
 73
     0
 40
0.0
  0
LTYPE
  5
25
330
21
100
AcDbSymbolTableRecord
100
AcDbLinetypeTableRecord
  2
CONTINUOUS
 70
     0
  3
Solid line
 72
    65
 73
     0
 40
0.0
  0
ENDTAB
  0
TABLE
  2
LAYER
  5
A71
330
0
100
AcDbSymbolTable
 70
13
  0
LAYER
  5
A72
330
A71
100
AcDbSymbolTableRecord
100
AcDbLayerTableRecord
  2
0
 70
   0
 62
   7
  6
CONTINUOUS
  0
LAYER
  5
A73
330
A71
100
AcDbSymbolTableRecord
100
AcDbLayerTableRecord
  2
View
 70
    0
 62
    7
  6
CONTINUOUS
  0
LAYER
  5
A74
330
A71
100
AcDbSymbolTableRecord
100
AcDbLayerTableRecord
  2
View001
 70
    0
 62
    7
  6
CONTINUOUS
  0
LAYER
  5
A75
330
A71
100
AcDbSymbolTableRecord
100
AcDbLayerTableRecord
  2
View002
 70
    0
 62
    7
  6
CONTINUOUS
  0
LAYER
  5
A76
330
A71
100
AcDbSymbolTableRecord
100
AcDbLayerTableRecord
  2
View003
 70
    0
 62
    7
  6
CONTINUOUS
  0
LAYER
  5
A77
330
A71
100
AcDbSymbolTableRecord
100
AcDbLayerTableRecord
  2
Dimension
 70
    0
 62
    7
  6
CONTINUOUS
  0
LAYER
  5
A78
330
A71
100
AcDbSymbolTableRecord
100
AcDbLayerTableRecord
  2
Dimension001
 70
    0
 62
    7
  6
CONTINUOUS
  0
LAYER
  5
A79
330
A71
100
AcDbSymbolTableRecord
100
AcDbLayerTableRecord
  2
Dimension002
 70
    0
 62
    7
  6
CONTINUOUS
  0
LAYER
  5
A7A
330
A71
100
AcDbSymbolTableRecord
100
AcDbLayerTableRecord
  2
Dimension003
 70
    0
 62
    7
  6
CONTINUOUS
  0
LAYER
  5
A7B
330
A71
100
AcDbSymbolTableRecord
100
AcDbLayerTableRecord
  2
Dimension004
 70
    0
 62
    7
  6
CONTINUOUS
  0
LAYER
  5
A7C
330
A71
100
AcDbSymbolTableRecord
100
AcDbLayerTableRecord
  2
Dimension005
 70
    0
 62
    7
  6
CONTINUOUS
  0
LAYER
  5
A7D
330
A71
100
AcDbSymbolTableRecord
100
AcDbLayerTableRecord
  2
Dimension006
 70
    0
 62
    7
  6
CONTINUOUS
  0
LAYER
  5
A7E
330
A71
100
AcDbSymbolTableRecord
100
AcDbLayerTableRecord
  2
Dimension007
 70
    0
 62
    7
  6
CONTINUOUS
  0
ENDTAB
  0
TABLE
  2
STYLE
  5
70
330
0
100
AcDbSymbolTable
 70
     2
  0
STYLE
  5
71
330
70
100
AcDbSymbolTableRecord
100
AcDbTextStyleTableRecord
  2
STANDARD
 70
     0
 40
0.0
 41
1.0
 50
0.0
 71
     0
 42
2.5
  3
arial.ttf
  4

  0
STYLE
  5
72
330
70
100
AcDbSymbolTableRecord
100
AcDbTextStyleTableRecord
  2
ANNOTATIVE
 70
     0
 40
0.0
 41
1.0
 50
0.0
 71
     0
 42
2.5
  3
arial.ttf
  4

  0
ENDTAB
  0
TABLE
  2
VIEW
  5
73
330
0
100
AcDbSymbolTable
 70
     0
  0
ENDTAB
  0
TABLE
  2
UCS
  5
74
330
0
100
AcDbSymbolTable
 70
     0
  0
ENDTAB
  0
TABLE
  2
APPID
  5
75
330
0
100
AcDbSymbolTable
 70
     2
  0
APPID
  5
76
330
75
100
AcDbSymbolTableRecord
100
AcDbRegAppTableRecord
  2
ACAD
 70
     0
  0
APPID
  5
77
330
75
100
AcDbSymbolTableRecord
100
AcDbRegAppTableRecord
  2
ACADANNOTATIVE
 70
     0
  0
ENDTAB
  0
TABLE
  2
DIMSTYLE
  5
78
330
0
100
AcDbSymbolTable
 70
     2
  0
DIMSTYLE
105
79
330
78
100
AcDbSymbolTableRecord
100
AcDbDimStyleTableRecord
  2
STANDARD
 70
     0
  3

  4

  5

  6

  7

 40
0.0
 41
2.5
 42
0.625
 43
3.75
 44
1.25
 45
0.0
 46
0.0
 47
0.0
 48
0.0
140
2.5
141
2.5
142
0.0
143
0.03937007874016
144
1.0
145
0.0
146
1.0
147
0.625
 71
     0
 72
     0
 73
     0
 74
     0
 75
     0
 76
     0
 77
     1
 78
     8
170
     0
171
     3
172
     1
173
     0
174
     0
175
     0
176
     0
177
     0
178
     0
270
     2
271
     2
272
     2
273
     2
274
     3
340
71
275
     0
280
     0
281
     0
282
     0
283
     0
284
     8
285
     0
286
     0
287
     3
288
     0
  0
ENDTAB
  0
TABLE
  2
BLOCK_RECORD
  5
A01
330
0
100
AcDbSymbolTable
  70
5
  0
BLOCK_RECORD
  5
A02
330
A01
100
AcDbSymbolTableRecord
100
AcDbBlockTableRecord
  2
*MODEL_SPACE
  0
BLOCK_RECORD
  5
A03
330
A01
100
AcDbSymbolTableRecord
100
AcDbBlockTableRecord
  2
*PAPER_SPACE
  0
BLOCK_RECORD
  5
A26
330
A01
100
AcDbSymbolTableRecord
100
AcDbBlockTableRecord
  2
*Dimension
  0
BLOCK_RECORD
  5
A30
330
A01
100
AcDbSymbolTableRecord
100
AcDbBlockTableRecord
  2
*Dimension001
  0
BLOCK_RECORD
  5
A3A
330
A01
100
AcDbSymbolTableRecord
100
AcDbBlockTableRecord
  2
*Dimension002
  0
BLOCK_RECORD
  5
A44
330
A01
100
AcDbSymbolTableRecord
100
AcDbBlockTableRecord
  2
*Dimension003
  0
BLOCK_RECORD
  5
A4E
330
A01
100
AcDbSymbolTableRecord
100
AcDbBlockTableRecord
  2
*Dimension004
  0
BLOCK_RECORD
  5
A58
330
A01
100
AcDbSymbolTableRecord
100
AcDbBlockTableRecord
  2
*Dimension005
  0
BLOCK_RECORD
  5
A62
330
A01
100
AcDbSymbolTableRecord
100
AcDbBlockTableRecord
  2
*Dimension006
  0
BLOCK_RECORD
  5
A6A
330
A01
100
AcDbSymbolTableRecord
100
AcDbBlockTableRecord
  2
*Dimension007
  0
ENDTAB
  0
ENDSEC
  0
SECTION
  2
BLOCKS
  0
BLOCK
  5
A04
330
A02
100
AcDbEntity
  8
0
100
AcDbBlockBegin
  2
*MODEL_SPACE
 70
   0
 10
0
 20
0
 30
0
  3
*MODEL_SPACE
  1
 
  0
ENDBLK
  5
A05
330
A02
100
AcDbEntity
  8
0
100
AcDbBlockEnd
  0
BLOCK
  5
A06
330
A03
100
AcDbEntity
 67
1
  8
0
100
AcDbBlockBegin
  2
*PAPER_SPACE
 70
   0
 10
0
 20
0
 30
0
  3
*PAPER_SPACE
  1
 
  0
ENDBLK
  5
A07
330
A03
100
AcDbEntity
 67
    1
  8
0
100
AcDbBlockEnd
  0
BLOCK
  5
A27
330
A26
100
AcDbEntity
  8
Dimension
100
AcDbBlockBegin
  2
*Dimension
 70
   1
 10
0
 20
0
 30
0
  3
*Dimension
  1
 
  0
LINE
  5
A28
330
A26
100
AcDbEntity
  8
Dimension
100
AcDbLine
 10
116.732
 20
114.944
 30
0
 11
116.732
 21
130.729
 31
0
  0
LINE
  5
A29
330
A26
100
AcDbEntity
  8
Dimension
100
AcDbLine
 10
16.7319
 20
114.944
 30
0
 11
16.7319
 21
130.729
 31
0
  0
LINE
  5
A2A
330
A26
100
AcDbEntity
  8
Dimension
100
AcDbLine
 10
16.7319
 20
130.729
 30
0
 11
116.732
 21
130.729
 31
0
  0
TEXT
  5
A2B
330
A26
100
AcDbEntity
  8
Dimension
100
AcDbText
 10
67.0769
 20
135.729
 30
0
 40
3.5
  1
100
  7
STANDARD
 72
1
 11
67.0769
 21
130.729
 31
0
100
AcDbText
  0
SOLID
  5
A2C
330
A26
100
AcDbEntity
  8
0
 62
     0
100
AcDbTrace
 10
11.7319
 20
131.146
 30
0
 11
11.7319
 21
130.313
 31
0
 12
16.7319
 22
130.729
 32
0
 13
16.7319
 23
130.729
 33
0
  0
SOLID
  5
A2D
330
A26
100
AcDbEntity
  8
0
 62
     0
100
AcDbTrace
 10
121.732
 20
131.146
 30
0
 11
121.732
 21
130.313
 31
0
 12
116.732
 22
130.729
 32
0
 13
116.732
 23
130.729
 33
0
  0
ENDBLK
  5
A2E
330
A26
100
AcDbEntity
  8
Dimension
100
AcDbBlockEnd
  0
BLOCK
  5
A31
330
A30
100
AcDbEntity
  8
Dimension001
100
AcDbBlockBegin
  2
*Dimension001
 70
   1
 10
0
 20
0
 30
0
  3
*Dimension001
  1
 
  0
LINE
  5
A32
330
A30
100
AcDbEntity
  8
Dimension001
100
AcDbLine
 10
116.732
 20
64.9437
 30
0
 11
127.597
 21
64.9437
 31
0
  0
LINE
  5
A33
330
A30
100
AcDbEntity
  8
Dimension001
100
AcDbLine
 10
116.732
 20
114.944
 30
0
 11
127.597
 21
114.944
 31
0
  0
LINE
  5
A34
330
A30
100
AcDbEntity
  8
Dimension001
100
AcDbLine
 10
127.597
 20
114.944
 30
0
 11
127.597
 21
64.9437
 31
0
  0
TEXT
  5
A35
330
A30
100
AcDbEntity
  8
Dimension001
100
AcDbText
 10
122.597
 20
90.7186
 30
0
 40
3.5
  1
50
  7
STANDARD
 72
1
 11
127.597
 21
90.7186
 31
0
100
AcDbText
  0
SOLID
  5
A36
330
A30
100
AcDbEntity
  8
0
 62
     0
100
AcDbTrace
 10
128.014
 20
119.944
 30
0
 11
127.18
 21
119.944
 31
0
 12
127.597
 22
114.944
 32
0
 13
127.597
 23
114.944
 33
0
  0
SOLID
  5
A37
330
A30
100
AcDbEntity
  8
0
 62
     0
100
AcDbTrace
 10
128.014
 20
59.9437
 30
0
 11
127.18
 21
59.9437
 31
0
 12
127.597
 22
64.9437
 32
0
 13
127.597
 23
64.9437
 33
0
  0
ENDBLK
  5
A38
330
A30
100
AcDbEntity
  8
Dimension001
100
AcDbBlockEnd
  0
BLOCK
  5
A3B
330
A3A
100
AcDbEntity
  8
Dimension002
100
AcDbBlockBegin
  2
*Dimension002
 70
   1
 10
0
 20
0
 30
0
  3
*Dimension002
  1
 
  0
LINE
  5
A3C
330
A3A
100
AcDbEntity
  8
Dimension002
100
AcDbLine
 10
152.481
 20
84.4744
 30
0
 11
152.481
 21
72.3087
 31
0
  0
LINE
  5
A3D
330
A3A
100
AcDbEntity
  8
Dimension002
100
AcDbLine
 10
202.481
 20
84.4744
 30
0
 11
202.481
 21
72.3087
 31
0
  0
LINE
  5
A3E
330
A3A
100
AcDbEntity
  8
Dimension002
100
AcDbLine
 10
202.481
 20
72.3087
 30
0
 11
152.481
 21
72.3087
 31
0
  0
TEXT
  5
A3F
330
A3A
100
AcDbEntity
  8
Dimension002
100
AcDbText
 10
175.066
 20
67.3087
 30
0
 40
3.5
  1
50
  7
STANDARD
 72
1
 11
175.066
 21
72.3087
 31
0
100
AcDbText
  0
SOLID
  5
A40
330
A3A
100
AcDbEntity
  8
0
 62
     0
100
AcDbTrace
 10
207.481
 20
71.892
 30
0
 11
207.481
 21
72.7253
 31
0
 12
202.481
 22
72.3087
 32
0
 13
202.481
 23
72.3087
 33
0
  0
SOLID
  5
A41
330
A3A
100
AcDbEntity
  8
0
 62
     0
100
AcDbTrace
 10
147.481
 20
71.892
 30
0
 11
147.481
 21
72.7253
 31
0
 12
152.481
 22
72.3087
 32
0
 13
152.481
 23
72.3087
 33
0
  0
ENDBLK
  5
A42
330
A3A
100
AcDbEntity
  8
Dimension002
100
AcDbBlockEnd
  0
BLOCK
  5
A45
330
A44
100
AcDbEntity
  8
Dimension003
100
AcDbBlockBegin
  2
*Dimension003
 70
   1
 10
0
 20
0
 30
0
  3
*Dimension003
  1
 
  0
LINE
  5
A46
330
A44
100
AcDbEntity
  8
Dimension003
100
AcDbLine
 10
202.481
 20
94.4744
 30
0
 11
204.036
 21
94.4744
 31
0
  0
LINE
  5
A47
330
A44
100
AcDbEntity
  8
Dimension003
100
AcDbLine
 10
202.481
 20
84.4744
 30
0
 11
204.036
 21
84.4744
 31
0
  0
LINE
  5
A48
330
A44
100
AcDbEntity
  8
Dimension003
100
AcDbLine
 10
204.036
 20
84.4744
 30
0
 11
204.036
 21
94.4744
 31
0
  0
TEXT
  5
A49
330
A44
100
AcDbEntity
  8
Dimension003
100
AcDbText
 10
209.036
 20
91.9744
 30
0
 40
3.5
  1
10
  7
STANDARD
 72
1
 11
204.036
 21
91.9744
 31
0
100
AcDbText
  0
SOLID
  5
A4A
330
A44
100
AcDbEntity
  8
0
 62
     0
100
AcDbTrace
 10
204.453
 20
79.4744
 30
0
 11
203.62
 21
79.4744
 31
0
 12
204.036
 22
84.4744
 32
0
 13
204.036
 23
84.4744
 33
0
  0
SOLID
  5
A4B
330
A44
100
AcDbEntity
  8
0
 62
     0
100
AcDbTrace
 10
204.453
 20
99.4744
 30
0
 11
203.62
 21
99.4744
 31
0
 12
204.036
 22
94.4744
 32
0
 13
204.036
 23
94.4744
 33
0
  0
ENDBLK
  5
A4C
330
A44
100
AcDbEntity
  8
Dimension003
100
AcDbBlockEnd
  0
BLOCK
  5
A4F
330
A4E
100
AcDbEntity
  8
Dimension004
100
AcDbBlockBegin
  2
*Dimension004
 70
   1
 10
0
 20
0
 30
0
  3
*Dimension004
  1
 
  0
LINE
  5
A50
330
A4E
100
AcDbEntity
  8
Dimension004
100
AcDbLine
 10
117.422
 20
44.1025
 30
0
 11
124.842
 21
44.1025
 31
0
  0
LINE
  5
A51
330
A4E
100
AcDbEntity
  8
Dimension004
100
AcDbLine
 10
117.422
 20
34.1025
 30
0
 11
124.842
 21
34.1025
 31
0
  0
LINE
  5
A52
330
A4E
100
AcDbEntity
  8
Dimension004
100
AcDbLine
 10
124.842
 20
34.1025
 30
0
 11
124.842
 21
44.1025
 31
0
  0
TEXT
  5
A53
330
A4E
100
AcDbEntity
  8
Dimension004
100
AcDbText
 10
129.842
 20
41.6025
 30
0
 40
3.5
  1
10
  7
STANDARD
 72
1
 11
124.842
 21
41.6025
 31
0
100
AcDbText
  0
SOLID
  5
A54
330
A4E
100
AcDbEntity
  8
0
 62
     0
100
AcDbTrace
 10
125.259
 20
29.1025
 30
0
 11
124.426
 21
29.1025
 31
0
 12
124.842
 22
34.1025
 32
0
 13
124.842
 23
34.1025
 33
0
  0
SOLID
  5
A55
330
A4E
100
AcDbEntity
  8
0
 62
     0
100
AcDbTrace
 10
125.259
 20
49.1025
 30
0
 11
124.426
 21
49.1025
 31
0
 12
124.842
 22
44.1025
 32
0
 13
124.842
 23
44.1025
 33
0
  0
ENDBLK
  5
A56
330
A4E
100
AcDbEntity
  8
Dimension004
100
AcDbBlockEnd
  0
BLOCK
  5
A59
330
A58
100
AcDbEntity
  8
Dimension005
100
AcDbBlockBegin
  2
*Dimension005
 70
   1
 10
0
 20
0
 30
0
  3
*Dimension005
  1
 
  0
LINE
  5
A5A
330
A58
100
AcDbEntity
  8
Dimension005
100
AcDbLine
 10
17.4219
 20
34.1025
 30
0
 11
17.4219
 21
25.7319
 31
0
  0
LINE
  5
A5B
330
A58
100
AcDbEntity
  8
Dimension005
100
AcDbLine
 10
117.422
 20
34.1025
 30
0
 11
117.422
 21
25.7319
 31
0
  0
LINE
  5
A5C
330
A58
100
AcDbEntity
  8
Dimension005
100
AcDbLine
 10
117.422
 20
25.7319
 30
0
 11
17.4219
 21
25.7319
 31
0
  0
TEXT
  5
A5D
330
A58
100
AcDbEntity
  8
Dimension005
100
AcDbText
 10
67.0769
 20
20.7319
 30
0
 40
3.5
  1
100
  7
STANDARD
 72
1
 11
67.0769
 21
25.7319
 31
0
100
AcDbText
  0
SOLID
  5
A5E
330
A58
100
AcDbEntity
  8
0
 62
     0
100
AcDbTrace
 10
122.422
 20
25.3152
 30
0
 11
122.422
 21
26.1486
 31
0
 12
117.422
 22
25.7319
 32
0
 13
117.422
 23
25.7319
 33
0
  0
SOLID
  5
A5F
330
A58
100
AcDbEntity
  8
0
 62
     0
100
AcDbTrace
 10
12.4219
 20
25.3152
 30
0
 11
12.4219
 21
26.1486
 31
0
 12
17.4219
 22
25.7319
 32
0
 13
17.4219
 23
25.7319
 33
0
  0
ENDBLK
  5
A60
330
A58
100
AcDbEntity
  8
Dimension005
100
AcDbBlockEnd
  0
BLOCK
  5
A63
330
A62
100
AcDbEntity
  8
Dimension006
100
AcDbBlockBegin
  2
*Dimension006
 70
   1
 10
0
 20
0
 30
0
  3
*Dimension006
  1
 
  0
LINE
  5
A64
330
A62
100
AcDbEntity
  8
Dimension006
100
AcDbLine
 10
95.0658
 20
93.6699
 30
0
 11
88.398
 21
86.2174
 31
0
  0
TEXT
  5
A65
330
A62
100
AcDbEntity
  8
Dimension006
100
AcDbText
 10
133.517
 20
145.8
 30
0
 40
3.5
  1
⌀10
  7
STANDARD
 72
1
 11
133.517
 21
145.8
 31
0
100
AcDbText
  0
SOLID
  5
A66
330
A62
100
AcDbEntity
  8
0
 62
     0
100
AcDbTrace
 10
92.0424
 20
89.6658
 30
0
 11
91.4214
 21
90.2215
 31
0
 12
95.0658
 22
93.6699
 32
0
 13
95.0658
 23
93.6699
 33
0
  0
SOLID
  5
A67
330
A62
100
AcDbEntity
  8
0
 62
     0
100
AcDbTrace
 10
92.0424
 20
89.6658
 30
0
 11
91.4214
 21
90.2215
 31
0
 12
88.398
 22
86.2174
 32
0
 13
88.398
 23
86.2174
 33
0
  0
ENDBLK
  5
A68
330
A62
100
AcDbEntity
  8
Dimension006
100
AcDbBlockEnd
  0
BLOCK
  5
A6B
330
A6A
100
AcDbEntity
  8
Dimension007
100
AcDbBlockBegin
  2
*Dimension007
 70
   1
 10
0
 20
0
 30
0
  3
*Dimension007
  1
 
  0
LINE
  5
A6C
330
A6A
100
AcDbEntity
  8
Dimension007
100
AcDbLine
 10
45.2365
 20
93.5098
 30
0
 11
38.2273
 21
86.3775
 31
0
  0
TEXT
  5
A6D
330
A6A
100
AcDbEntity
  8
Dimension007
100
AcDbText
 10
93.1089
 20
151.09
 30
0
 40
3.5
  1
⌀10
  7
STANDARD
 72
1
 11
93.1089
 21
151.09
 31
0
100
AcDbText
  0
SOLID
  5
A6E
330
A6A
100
AcDbEntity
  8
0
 62
     0
100
AcDbTrace
 10
42.0291
 20
89.6516
 30
0
 11
41.4347
 21
90.2357
 31
0
 12
45.2365
 22
93.5098
 32
0
 13
45.2365
 23
93.5098
 33
0
  0
SOLID
  5
A6F
330
A6A
100
AcDbEntity
  8
0
 62
     0
100
AcDbTrace
 10
42.0291
 20
89.6516
 30
0
 11
41.4347
 21
90.2357
 31
0
 12
38.2273
 22
86.3775
 32
0
 13
38.2273
 23
86.3775
 33
0
  0
ENDBLK
  5
A70
330
A6A
100
AcDbEntity
  8
Dimension007
100
AcDbBlockEnd
  0
ENDSEC
  0
SECTION
  2
ENTITIES
  0
LINE
  5
A08
330
A02
100
AcDbEntity
  8
View
100
AcDbLine
 10
282.611
 20
146.948
 30
0
 11
282.611
 21
155.113
 31
0
  0
LINE
  5
A09
330
A02
100
AcDbEntity
  8
View
100
AcDbLine
 10
211.9
 20
195.938
 30
0
 11
282.611
 21
155.113
 31
0
  0
LINE
  5
A0A
330
A02
100
AcDbEntity
  8
View
100
AcDbLine
 10
247.256
 20
126.536
 30
0
 11
247.256
 21
134.701
 31
0
  0
LINE
  5
A0B
330
A02
100
AcDbEntity
  8
View
100
AcDbLine
 10
282.611
 20
146.948
 30
0
 11
247.256
 21
126.536
 31
0
  0
LINE
  5
A0C
330
A02
100
AcDbEntity
  8
View
100
AcDbLine
 10
282.611
 20
155.113
 30
0
 11
247.256
 21
134.701
 31
0
  0
LINE
  5
A0D
330
A02
100
AcDbEntity
  8
View
100
AcDbLine
 10
176.545
 20
167.361
 30
0
 11
176.545
 21
175.526
 31
0
  0
LINE
  5
A0E
330
A02
100
AcDbEntity
  8
View
100
AcDbLine
 10
247.256
 20
126.536
 30
0
 11
176.545
 21
167.361
 31
0
  0
LINE
  5
A0F
330
A02
100
AcDbEntity
  8
View
100
AcDbLine
 10
247.256
 20
134.701
 30
0
 11
176.545
 21
175.526
 31
0
  0
LINE
  5
A10
330
A02
100
AcDbEntity
  8
View
100
AcDbLine
 10
176.545
 20
175.526
 30
0
 11
211.9
 21
195.938
 31
0
  0
ELLIPSE
  5
A11
330
A02
100
AcDbEntity
  8
View
100
AcDbEllipse
 10
247.256
 20
155.113
 30
0
 11
5
 21
3.06162e-16
 31
0
 40
0.57735
 41
5.49779
 42
0
  0
ELLIPSE
  5
A12
330
A02
100
AcDbEntity
  8
View
100
AcDbEllipse
 10
247.256
 20
155.113
 30
0
 11
5
 21
3.06162e-16
 31
0
 40
0.57735
 41
0
 42
3.14159
  0
ELLIPSE
  5
A13
330
A02
100
AcDbEntity
  8
View
100
AcDbEllipse
 10
247.256
 20
155.113
 30
0
 11
5
 21
3.06162e-16
 31
0
 40
0.57735
 41
3.14159
 42
5.49779
  0
ELLIPSE
  5
A14
330
A02
100
AcDbEntity
  8
View
100
AcDbEllipse
 10
211.9
 20
175.526
 30
0
 11
5
 21
3.06162e-16
 31
0
 40
0.57735
 41
5.49779
 42
0
  0
ELLIPSE
  5
A15
330
A02
100
AcDbEntity
  8
View
100
AcDbEllipse
 10
211.9
 20
175.526
 30
0
 11
5
 21
3.06162e-16
 31
0
 40
0.57735
 41
0
 42
3.14159
  0
ELLIPSE
  5
A16
330
A02
100
AcDbEntity
  8
View
100
AcDbEllipse
 10
211.9
 20
175.526
 30
0
 11
5
 21
3.06162e-16
 31
0
 40
0.57735
 41
3.14159
 42
5.49779
  0
LINE
  5
A17
330
A02
100
AcDbEntity
  8
View001
100
AcDbLine
 10
117.422
 20
34.1025
 30
0
 11
117.422
 21
44.1025
 31
0
  0
LINE
  5
A18
330
A02
100
AcDbEntity
  8
View001
100
AcDbLine
 10
17.4219
 20
34.1025
 30
0
 11
17.4219
 21
44.1025
 31
0
  0
LINE
  5
A19
330
A02
100
AcDbEntity
  8
View001
100
AcDbLine
 10
117.422
 20
34.1025
 30
0
 11
17.4219
 21
34.1025
 31
0
  0
LINE
  5
A1A
330
A02
100
AcDbEntity
  8
View001
100
AcDbLine
 10
117.422
 20
44.1025
 30
0
 11
17.4219
 21
44.1025
 31
0
  0
LINE
  5
A1B
330
A02
100
AcDbEntity
  8
View002
100
AcDbLine
 10
202.481
 20
84.4744
 30
0
 11
202.481
 21
94.4744
 31
0
  0
LINE
  5
A1C
330
A02
100
AcDbEntity
  8
View002
100
AcDbLine
 10
152.481
 20
84.4744
 30
0
 11
152.481
 21
94.4744
 31
0
  0
LINE
  5
A1D
330
A02
100
AcDbEntity
  8
View002
100
AcDbLine
 10
202.481
 20
84.4744
 30
0
 11
152.481
 21
84.4744
 31
0
  0
LINE
  5
A1E
330
A02
100
AcDbEntity
  8
View002
100
AcDbLine
 10
202.481
 20
94.4744
 30
0
 11
152.481
 21
94.4744
 31
0
  0
LINE
  5
A1F
330
A02
100
AcDbEntity
  8
View003
100
AcDbLine
 10
16.7319
 20
114.944
 30
0
 11
116.732
 21
114.944
 31
0
  0
LINE
  5
A20
330
A02
100
AcDbEntity
  8
View003
100
AcDbLine
 10
116.732
 20
114.944
 30
0
 11
116.732
 21
64.9437
 31
0
  0
LINE
  5
A21
330
A02
100
AcDbEntity
  8
View003
100
AcDbLine
 10
116.732
 20
64.9437
 30
0
 11
16.7319
 21
64.9437
 31
0
  0
LINE
  5
A22
330
A02
100
AcDbEntity
  8
View003
100
AcDbLine
 10
16.7319
 20
64.9437
 30
0
 11
16.7319
 21
114.944
 31
0
  0
CIRCLE
  5
A23
330
A02
100
AcDbEntity
  8
View003
100
AcDbCircle
 10
91.7319
 20
89.9437
 40
5
  0
CIRCLE
  5
A24
330
A02
100
AcDbEntity
  8
View003
100
AcDbCircle
 10
41.7319
 20
89.9437
 40
5
  0
DIMENSION
  5
A25
330
A02
100
AcDbEntity
  8
Dimension
100
AcDbDimension
  2
*Dimension
 10
67.0769
 20
130.729
 30
0
 11
67.0769
 21
135.729
 31
0
 70
32
  1
100
  3
STANDARD
100
AcDbAlignedDimension
 13
16.7319
 23
114.944
 33
0
 14
116.732
 24
114.944
 34
0
100
AcDbRotatedDimension
  0
DIMENSION
  5
A2F
330
A02
100
AcDbEntity
  8
Dimension001
100
AcDbDimension
  2
*Dimension001
 10
127.597
 20
90.7186
 30
0
 11
122.597
 21
90.7186
 31
0
 70
32
  1
50
  3
STANDARD
100
AcDbAlignedDimension
 13
116.732
 23
114.944
 33
0
 14
116.732
 24
64.9437
 34
0
 50
90
100
AcDbRotatedDimension
  0
DIMENSION
  5
A39
330
A02
100
AcDbEntity
  8
Dimension002
100
AcDbDimension
  2
*Dimension002
 10
175.066
 20
72.3087
 30
0
 11
175.066
 21
67.3087
 31
0
 70
32
  1
50
  3
STANDARD
100
AcDbAlignedDimension
 13
202.481
 23
84.4744
 33
0
 14
152.481
 24
84.4744
 34
0
100
AcDbRotatedDimension
  0
DIMENSION
  5
A43
330
A02
100
AcDbEntity
  8
Dimension003
100
AcDbDimension
  2
*Dimension003
 10
204.036
 20
91.9744
 30
0
 11
209.036
 21
91.9744
 31
0
 70
32
  1
10
  3
STANDARD
100
AcDbAlignedDimension
 13
202.481
 23
84.4744
 33
0
 14
202.481
 24
94.4744
 34
0
 50
90
100
AcDbRotatedDimension
  0
DIMENSION
  5
A4D
330
A02
100
AcDbEntity
  8
Dimension004
100
AcDbDimension
  2
*Dimension004
 10
124.842
 20
41.6025
 30
0
 11
129.842
 21
41.6025
 31
0
 70
32
  1
10
  3
STANDARD
100
AcDbAlignedDimension
 13
117.422
 23
34.1025
 33
0
 14
117.422
 24
44.1025
 34
0
 50
90
100
AcDbRotatedDimension
  0
DIMENSION
  5
A57
330
A02
100
AcDbEntity
  8
Dimension005
100
AcDbDimension
  2
*Dimension005
 10
67.0769
 20
25.7319
 30
0
 11
67.0769
 21
20.7319
 31
0
 70
32
  1
100
  3
STANDARD
100
AcDbAlignedDimension
 13
117.422
 23
34.1025
 33
0
 14
17.4219
 24
34.1025
 34
0
100
AcDbRotatedDimension
  0
DIMENSION
  5
A61
330
A02
100
AcDbEntity
  8
Dimension006
100
AcDbDimension
  2
*Dimension006
 10
95.0658
 20
93.6699
 30
0
 11
133.517
 21
145.8
 31
0
 70
3
  1
⌀10
  3
STANDARD
100
AcDbDiametricDimension
 15
88.398
 25
86.2174
 35
0
 40
0
  0
DIMENSION
  5
A69
330
A02
100
AcDbEntity
  8
Dimension007
100
AcDbDimension
  2
*Dimension007
 10
45.2365
 20
93.5098
 30
0
 11
93.1089
 21
151.09
 31
0
 70
3
  1
⌀10
  3
STANDARD
100
AcDbDiametricDimension
 15
38.2273
 25
86.3775
 35
0
 40
0
  0
ENDSEC
  0
SECTION
  2
OBJECTS
  0
DICTIONARY
  5
F000
330
0
100
AcDbDictionary
  3
ACAD_GROUP
350
F001
  0
DICTIONARY
  5
F001
330
F000
100
AcDbDictionary
  0
ENDSEC
  0
EOF